<mxfile host="app.diagrams.net" modified="2023-10-14T07:04:05.752Z" agent="Mozilla/5.0 (Macintosh; Intel Mac OS X 10_15_7) AppleWebKit/605.1.15 (KHTML, like Gecko) Version/16.5 Safari/605.1.15" etag="43Aib-3aykTRIwGDwHyM" version="22.0.4" type="github">
  <diagram id="R2lEEEUBdFMjLlhIrx00" name="Page-1">
    <mxGraphModel dx="3131" dy="974" grid="1" gridSize="10" guides="1" tooltips="1" connect="1" arrows="1" fold="1" page="1" pageScale="1" pageWidth="850" pageHeight="1100" math="0" shadow="0" extFonts="Permanent Marker^https://fonts.googleapis.com/css?family=Permanent+Marker">
      <root>
        <mxCell id="0" />
        <mxCell id="1" parent="0" />
        <mxCell id="sbY-JyXyrOLw-_T_HfWh-8" value="" style="edgeStyle=orthogonalEdgeStyle;rounded=0;orthogonalLoop=1;jettySize=auto;html=1;endArrow=none;endFill=0;" edge="1" parent="1" source="sbY-JyXyrOLw-_T_HfWh-1" target="sbY-JyXyrOLw-_T_HfWh-2">
          <mxGeometry relative="1" as="geometry" />
        </mxCell>
        <mxCell id="sbY-JyXyrOLw-_T_HfWh-1" value="NUS" style="rounded=0;whiteSpace=wrap;html=1;" vertex="1" parent="1">
          <mxGeometry x="-57.5" y="30" width="120" height="60" as="geometry" />
        </mxCell>
        <mxCell id="sbY-JyXyrOLw-_T_HfWh-18" style="edgeStyle=orthogonalEdgeStyle;rounded=0;orthogonalLoop=1;jettySize=auto;html=1;entryX=0.5;entryY=0;entryDx=0;entryDy=0;endArrow=none;endFill=0;" edge="1" parent="1" source="sbY-JyXyrOLw-_T_HfWh-2" target="sbY-JyXyrOLw-_T_HfWh-3">
          <mxGeometry relative="1" as="geometry" />
        </mxCell>
        <mxCell id="sbY-JyXyrOLw-_T_HfWh-19" style="edgeStyle=orthogonalEdgeStyle;rounded=0;orthogonalLoop=1;jettySize=auto;html=1;endArrow=none;endFill=0;" edge="1" parent="1" source="sbY-JyXyrOLw-_T_HfWh-2" target="sbY-JyXyrOLw-_T_HfWh-4">
          <mxGeometry relative="1" as="geometry" />
        </mxCell>
        <mxCell id="sbY-JyXyrOLw-_T_HfWh-20" style="edgeStyle=orthogonalEdgeStyle;rounded=0;orthogonalLoop=1;jettySize=auto;html=1;entryX=0.5;entryY=0;entryDx=0;entryDy=0;endArrow=none;endFill=0;" edge="1" parent="1" source="sbY-JyXyrOLw-_T_HfWh-2" target="sbY-JyXyrOLw-_T_HfWh-5">
          <mxGeometry relative="1" as="geometry" />
        </mxCell>
        <mxCell id="sbY-JyXyrOLw-_T_HfWh-2" value="University Campus Infrastructure Department" style="rounded=0;whiteSpace=wrap;html=1;" vertex="1" parent="1">
          <mxGeometry x="-127.5" y="120" width="260" height="60" as="geometry" />
        </mxCell>
        <mxCell id="sbY-JyXyrOLw-_T_HfWh-24" style="edgeStyle=orthogonalEdgeStyle;rounded=0;orthogonalLoop=1;jettySize=auto;html=1;entryX=0.5;entryY=0;entryDx=0;entryDy=0;endArrow=none;endFill=0;" edge="1" parent="1" source="sbY-JyXyrOLw-_T_HfWh-3" target="sbY-JyXyrOLw-_T_HfWh-6">
          <mxGeometry relative="1" as="geometry" />
        </mxCell>
        <mxCell id="sbY-JyXyrOLw-_T_HfWh-25" style="edgeStyle=orthogonalEdgeStyle;rounded=0;orthogonalLoop=1;jettySize=auto;html=1;entryX=0.5;entryY=0;entryDx=0;entryDy=0;endArrow=none;endFill=0;" edge="1" parent="1" source="sbY-JyXyrOLw-_T_HfWh-3" target="sbY-JyXyrOLw-_T_HfWh-7">
          <mxGeometry relative="1" as="geometry" />
        </mxCell>
        <mxCell id="sbY-JyXyrOLw-_T_HfWh-3" value="Transport" style="rounded=0;whiteSpace=wrap;html=1;" vertex="1" parent="1">
          <mxGeometry x="-257.5" y="270" width="130" height="60" as="geometry" />
        </mxCell>
        <mxCell id="sbY-JyXyrOLw-_T_HfWh-4" value="Logistics" style="rounded=0;whiteSpace=wrap;html=1;" vertex="1" parent="1">
          <mxGeometry x="-62.5" y="270" width="130" height="60" as="geometry" />
        </mxCell>
        <mxCell id="sbY-JyXyrOLw-_T_HfWh-5" value="Car Park" style="rounded=0;whiteSpace=wrap;html=1;" vertex="1" parent="1">
          <mxGeometry x="132.5" y="270" width="130" height="60" as="geometry" />
        </mxCell>
        <mxCell id="sbY-JyXyrOLw-_T_HfWh-26" style="edgeStyle=orthogonalEdgeStyle;rounded=0;orthogonalLoop=1;jettySize=auto;html=1;endArrow=none;endFill=0;" edge="1" parent="1" target="sbY-JyXyrOLw-_T_HfWh-22">
          <mxGeometry relative="1" as="geometry">
            <mxPoint x="-302" y="450" as="sourcePoint" />
          </mxGeometry>
        </mxCell>
        <mxCell id="sbY-JyXyrOLw-_T_HfWh-27" style="edgeStyle=orthogonalEdgeStyle;rounded=0;orthogonalLoop=1;jettySize=auto;html=1;entryX=0.5;entryY=0;entryDx=0;entryDy=0;endArrow=none;endFill=0;" edge="1" parent="1" source="sbY-JyXyrOLw-_T_HfWh-6" target="sbY-JyXyrOLw-_T_HfWh-23">
          <mxGeometry relative="1" as="geometry" />
        </mxCell>
        <mxCell id="sbY-JyXyrOLw-_T_HfWh-6" value="Internal Shuttle Bus (ISB) Routes" style="rounded=0;whiteSpace=wrap;html=1;fillColor=#ffe6cc;strokeColor=#d79b00;" vertex="1" parent="1">
          <mxGeometry x="-407.5" y="370" width="210" height="60" as="geometry" />
        </mxCell>
        <mxCell id="sbY-JyXyrOLw-_T_HfWh-65" style="edgeStyle=orthogonalEdgeStyle;rounded=0;orthogonalLoop=1;jettySize=auto;html=1;entryX=0.5;entryY=0;entryDx=0;entryDy=0;endArrow=none;endFill=0;" edge="1" parent="1" source="sbY-JyXyrOLw-_T_HfWh-7" target="sbY-JyXyrOLw-_T_HfWh-63">
          <mxGeometry relative="1" as="geometry" />
        </mxCell>
        <mxCell id="sbY-JyXyrOLw-_T_HfWh-66" style="edgeStyle=orthogonalEdgeStyle;rounded=0;orthogonalLoop=1;jettySize=auto;html=1;endArrow=none;endFill=0;" edge="1" parent="1" source="sbY-JyXyrOLw-_T_HfWh-7" target="sbY-JyXyrOLw-_T_HfWh-64">
          <mxGeometry relative="1" as="geometry" />
        </mxCell>
        <mxCell id="sbY-JyXyrOLw-_T_HfWh-7" value="Next Bus Mobile Application" style="rounded=0;whiteSpace=wrap;html=1;fillColor=#fff2cc;strokeColor=#d6b656;" vertex="1" parent="1">
          <mxGeometry x="-187.5" y="370" width="210" height="60" as="geometry" />
        </mxCell>
        <mxCell id="sbY-JyXyrOLw-_T_HfWh-38" style="edgeStyle=orthogonalEdgeStyle;rounded=0;orthogonalLoop=1;jettySize=auto;html=1;entryX=0.5;entryY=0;entryDx=0;entryDy=0;endArrow=none;endFill=0;" edge="1" parent="1" source="sbY-JyXyrOLw-_T_HfWh-22" target="sbY-JyXyrOLw-_T_HfWh-31">
          <mxGeometry relative="1" as="geometry" />
        </mxCell>
        <mxCell id="sbY-JyXyrOLw-_T_HfWh-40" style="edgeStyle=orthogonalEdgeStyle;rounded=0;orthogonalLoop=1;jettySize=auto;html=1;entryX=0.5;entryY=0;entryDx=0;entryDy=0;endArrow=none;endFill=0;" edge="1" parent="1" source="sbY-JyXyrOLw-_T_HfWh-22" target="sbY-JyXyrOLw-_T_HfWh-32">
          <mxGeometry relative="1" as="geometry" />
        </mxCell>
        <mxCell id="sbY-JyXyrOLw-_T_HfWh-41" style="edgeStyle=orthogonalEdgeStyle;rounded=0;orthogonalLoop=1;jettySize=auto;html=1;entryX=0.5;entryY=0;entryDx=0;entryDy=0;endArrow=none;endFill=0;" edge="1" parent="1" target="sbY-JyXyrOLw-_T_HfWh-33">
          <mxGeometry relative="1" as="geometry">
            <mxPoint x="-620" y="550" as="sourcePoint" />
          </mxGeometry>
        </mxCell>
        <mxCell id="sbY-JyXyrOLw-_T_HfWh-42" style="edgeStyle=orthogonalEdgeStyle;rounded=0;orthogonalLoop=1;jettySize=auto;html=1;entryX=0.5;entryY=0;entryDx=0;entryDy=0;endArrow=none;endFill=0;" edge="1" parent="1" target="sbY-JyXyrOLw-_T_HfWh-29">
          <mxGeometry relative="1" as="geometry">
            <mxPoint x="-750" y="550" as="sourcePoint" />
          </mxGeometry>
        </mxCell>
        <mxCell id="sbY-JyXyrOLw-_T_HfWh-22" value="Kent Ridge Campus" style="rounded=0;whiteSpace=wrap;html=1;fillColor=#f8cecc;strokeColor=#b85450;" vertex="1" parent="1">
          <mxGeometry x="-770" y="470" width="210" height="60" as="geometry" />
        </mxCell>
        <mxCell id="sbY-JyXyrOLw-_T_HfWh-43" style="edgeStyle=orthogonalEdgeStyle;rounded=0;orthogonalLoop=1;jettySize=auto;html=1;entryX=0.5;entryY=0;entryDx=0;entryDy=0;endArrow=none;endFill=0;" edge="1" parent="1" source="sbY-JyXyrOLw-_T_HfWh-23" target="sbY-JyXyrOLw-_T_HfWh-34">
          <mxGeometry relative="1" as="geometry" />
        </mxCell>
        <mxCell id="sbY-JyXyrOLw-_T_HfWh-44" style="edgeStyle=orthogonalEdgeStyle;rounded=0;orthogonalLoop=1;jettySize=auto;html=1;endArrow=none;endFill=0;" edge="1" parent="1" source="sbY-JyXyrOLw-_T_HfWh-23" target="sbY-JyXyrOLw-_T_HfWh-35">
          <mxGeometry relative="1" as="geometry" />
        </mxCell>
        <mxCell id="sbY-JyXyrOLw-_T_HfWh-23" value="Bukit Timah Campus" style="rounded=0;whiteSpace=wrap;html=1;fillColor=#d5e8d4;strokeColor=#82b366;" vertex="1" parent="1">
          <mxGeometry x="-407.5" y="470" width="210" height="60" as="geometry" />
        </mxCell>
        <mxCell id="sbY-JyXyrOLw-_T_HfWh-51" style="edgeStyle=orthogonalEdgeStyle;rounded=0;orthogonalLoop=1;jettySize=auto;html=1;endArrow=none;endFill=0;" edge="1" parent="1" source="sbY-JyXyrOLw-_T_HfWh-29" target="sbY-JyXyrOLw-_T_HfWh-46">
          <mxGeometry relative="1" as="geometry" />
        </mxCell>
        <mxCell id="sbY-JyXyrOLw-_T_HfWh-52" style="edgeStyle=orthogonalEdgeStyle;rounded=0;orthogonalLoop=1;jettySize=auto;html=1;endArrow=none;endFill=0;" edge="1" parent="1" source="sbY-JyXyrOLw-_T_HfWh-29" target="sbY-JyXyrOLw-_T_HfWh-47">
          <mxGeometry relative="1" as="geometry" />
        </mxCell>
        <mxCell id="sbY-JyXyrOLw-_T_HfWh-29" value="ISB Service A" style="rounded=0;whiteSpace=wrap;html=1;fillColor=#f8cecc;strokeColor=#b85450;" vertex="1" parent="1">
          <mxGeometry x="-930" y="570" width="100" height="60" as="geometry" />
        </mxCell>
        <mxCell id="sbY-JyXyrOLw-_T_HfWh-53" style="edgeStyle=orthogonalEdgeStyle;rounded=0;orthogonalLoop=1;jettySize=auto;html=1;entryX=0.5;entryY=0;entryDx=0;entryDy=0;endArrow=none;endFill=0;" edge="1" parent="1" source="sbY-JyXyrOLw-_T_HfWh-31" target="sbY-JyXyrOLw-_T_HfWh-48">
          <mxGeometry relative="1" as="geometry" />
        </mxCell>
        <mxCell id="sbY-JyXyrOLw-_T_HfWh-54" style="edgeStyle=orthogonalEdgeStyle;rounded=0;orthogonalLoop=1;jettySize=auto;html=1;entryX=0.5;entryY=0;entryDx=0;entryDy=0;endArrow=none;endFill=0;" edge="1" parent="1" source="sbY-JyXyrOLw-_T_HfWh-31" target="sbY-JyXyrOLw-_T_HfWh-49">
          <mxGeometry relative="1" as="geometry" />
        </mxCell>
        <mxCell id="sbY-JyXyrOLw-_T_HfWh-31" value="ISB Service D" style="rounded=0;whiteSpace=wrap;html=1;fillColor=#f8cecc;strokeColor=#b85450;" vertex="1" parent="1">
          <mxGeometry x="-800" y="570" width="100" height="60" as="geometry" />
        </mxCell>
        <mxCell id="sbY-JyXyrOLw-_T_HfWh-59" style="edgeStyle=orthogonalEdgeStyle;rounded=0;orthogonalLoop=1;jettySize=auto;html=1;entryX=0.5;entryY=0;entryDx=0;entryDy=0;endArrow=none;endFill=0;" edge="1" parent="1" source="sbY-JyXyrOLw-_T_HfWh-32" target="sbY-JyXyrOLw-_T_HfWh-55">
          <mxGeometry relative="1" as="geometry" />
        </mxCell>
        <mxCell id="sbY-JyXyrOLw-_T_HfWh-32" value="ISB Service E" style="rounded=0;whiteSpace=wrap;html=1;fillColor=#f8cecc;strokeColor=#b85450;" vertex="1" parent="1">
          <mxGeometry x="-670" y="570" width="100" height="60" as="geometry" />
        </mxCell>
        <mxCell id="sbY-JyXyrOLw-_T_HfWh-60" style="edgeStyle=orthogonalEdgeStyle;rounded=0;orthogonalLoop=1;jettySize=auto;html=1;entryX=0.5;entryY=0;entryDx=0;entryDy=0;endArrow=none;endFill=0;" edge="1" parent="1" source="sbY-JyXyrOLw-_T_HfWh-33" target="sbY-JyXyrOLw-_T_HfWh-56">
          <mxGeometry relative="1" as="geometry" />
        </mxCell>
        <mxCell id="sbY-JyXyrOLw-_T_HfWh-33" value="ISB Service K" style="rounded=0;whiteSpace=wrap;html=1;fillColor=#f8cecc;strokeColor=#b85450;" vertex="1" parent="1">
          <mxGeometry x="-540" y="570" width="100" height="60" as="geometry" />
        </mxCell>
        <mxCell id="sbY-JyXyrOLw-_T_HfWh-61" style="edgeStyle=orthogonalEdgeStyle;rounded=0;orthogonalLoop=1;jettySize=auto;html=1;entryX=0.5;entryY=0;entryDx=0;entryDy=0;endArrow=none;endFill=0;" edge="1" parent="1" source="sbY-JyXyrOLw-_T_HfWh-34" target="sbY-JyXyrOLw-_T_HfWh-57">
          <mxGeometry relative="1" as="geometry" />
        </mxCell>
        <mxCell id="sbY-JyXyrOLw-_T_HfWh-34" value="ISB Service BTC" style="rounded=0;whiteSpace=wrap;html=1;fillColor=#d5e8d4;strokeColor=#82b366;" vertex="1" parent="1">
          <mxGeometry x="-407.5" y="570" width="100" height="60" as="geometry" />
        </mxCell>
        <mxCell id="sbY-JyXyrOLw-_T_HfWh-62" style="edgeStyle=orthogonalEdgeStyle;rounded=0;orthogonalLoop=1;jettySize=auto;html=1;entryX=0.5;entryY=0;entryDx=0;entryDy=0;endArrow=none;endFill=0;" edge="1" parent="1" source="sbY-JyXyrOLw-_T_HfWh-35" target="sbY-JyXyrOLw-_T_HfWh-58">
          <mxGeometry relative="1" as="geometry" />
        </mxCell>
        <mxCell id="sbY-JyXyrOLw-_T_HfWh-35" value="ISB Service L" style="rounded=0;whiteSpace=wrap;html=1;fillColor=#d5e8d4;strokeColor=#82b366;" vertex="1" parent="1">
          <mxGeometry x="-297.5" y="570" width="100" height="60" as="geometry" />
        </mxCell>
        <mxCell id="sbY-JyXyrOLw-_T_HfWh-46" value="A1" style="ellipse;whiteSpace=wrap;html=1;aspect=fixed;fillColor=#e51400;fontColor=#ffffff;strokeColor=#B20000;" vertex="1" parent="1">
          <mxGeometry x="-950" y="664" width="60" height="60" as="geometry" />
        </mxCell>
        <mxCell id="sbY-JyXyrOLw-_T_HfWh-47" value="A2" style="ellipse;whiteSpace=wrap;html=1;aspect=fixed;fillColor=#e3c800;fontColor=#000000;strokeColor=#B09500;" vertex="1" parent="1">
          <mxGeometry x="-880" y="664" width="60" height="60" as="geometry" />
        </mxCell>
        <mxCell id="sbY-JyXyrOLw-_T_HfWh-48" value="D1" style="ellipse;whiteSpace=wrap;html=1;aspect=fixed;fillColor=#E392FE;strokeColor=#56517e;" vertex="1" parent="1">
          <mxGeometry x="-810" y="664" width="60" height="60" as="geometry" />
        </mxCell>
        <mxCell id="sbY-JyXyrOLw-_T_HfWh-49" value="&lt;font color=&quot;#ffffff&quot;&gt;D2&lt;/font&gt;" style="ellipse;whiteSpace=wrap;html=1;aspect=fixed;fillColor=#7F00FF;" vertex="1" parent="1">
          <mxGeometry x="-740" y="664" width="60" height="60" as="geometry" />
        </mxCell>
        <mxCell id="sbY-JyXyrOLw-_T_HfWh-55" value="E" style="ellipse;whiteSpace=wrap;html=1;aspect=fixed;fillColor=#66CC00;fontColor=#ffffff;strokeColor=#3A5431;" vertex="1" parent="1">
          <mxGeometry x="-650" y="664" width="60" height="60" as="geometry" />
        </mxCell>
        <mxCell id="sbY-JyXyrOLw-_T_HfWh-56" value="&lt;font color=&quot;#ffffff&quot;&gt;K&lt;/font&gt;" style="ellipse;whiteSpace=wrap;html=1;aspect=fixed;fillColor=#004C99;strokeColor=#36393d;" vertex="1" parent="1">
          <mxGeometry x="-520" y="664" width="60" height="60" as="geometry" />
        </mxCell>
        <mxCell id="sbY-JyXyrOLw-_T_HfWh-57" value="BTC" style="ellipse;whiteSpace=wrap;html=1;aspect=fixed;fillColor=#FF9933;" vertex="1" parent="1">
          <mxGeometry x="-387.5" y="664" width="60" height="60" as="geometry" />
        </mxCell>
        <mxCell id="sbY-JyXyrOLw-_T_HfWh-58" value="L" style="ellipse;whiteSpace=wrap;html=1;aspect=fixed;fillColor=#E6E6E6;" vertex="1" parent="1">
          <mxGeometry x="-277.5" y="664" width="60" height="60" as="geometry" />
        </mxCell>
        <mxCell id="sbY-JyXyrOLw-_T_HfWh-63" value="iOS" style="ellipse;whiteSpace=wrap;html=1;aspect=fixed;fillColor=#FFFFFF;" vertex="1" parent="1">
          <mxGeometry x="-170" y="664" width="60" height="60" as="geometry" />
        </mxCell>
        <mxCell id="sbY-JyXyrOLw-_T_HfWh-64" value="Android" style="ellipse;whiteSpace=wrap;html=1;aspect=fixed;fillColor=#FFFFFF;" vertex="1" parent="1">
          <mxGeometry x="-57.5" y="664" width="60" height="60" as="geometry" />
        </mxCell>
      </root>
    </mxGraphModel>
  </diagram>
</mxfile>
